{"accessors" : [{"bufferView" : 0, "byteOffset" : 0, "componentType" : 5123, "count" : 11640, "type" : "SCALAR", "max" : [9820], "min" : [0]}, {"bufferView" : 1, "byteOffset" : 0, "componentType" : 5126, "count" : 9821, "type" : "VEC3", "max" : [2384.293701171875, 14075.58984375, 23000.001953125], "min" : [-12615.708984375, -249.99856567382812, -1000.0007934570312], "name" : "POSITION"}, {"bufferView" : 1, "byteOffset" : 12, "componentType" : 5126, "count" : 9821, "type" : "VEC2", "max" : [4.127284526824951, 2.009901285171509], "min" : [-3.9939866065979004, -150], "name" : "TEXCOORD_0"}, {"bufferView" : 0, "byteOffset" : 23280, "componentType" : 5123, "count" : 14256, "type" : "SCALAR", "max" : [12090], "min" : [0]}, {"bufferView" : 2, "byteOffset" : 0, "componentType" : 5126, "count" : 12091, "type" : "VEC3", "max" : [1799.3709716796875, 13834.7568359375, 21355.412109375], "min" : [-11842.6455078125, 5900.798828125, 652.9855346679688], "name" : "POSITION"}, {"bufferView" : 2, "byteOffset" : 12, "componentType" : 5126, "count" : 12091, "type" : "VEC2", "max" : [1, -0], "min" : [0, -1], "name" : "TEXCOORD_0"}], "asset" : {"generator" : "Aspose.3D 23.9.0", "version" : "2.0"}, "buffers" : [{"uri" : "data:application/octet-stream;base64,", "byteLength" : 569724}], "bufferViews" : [{"buffer" : 0, "byteOffset" : 0, "byteLength" : 51792, "target" : 34963}, {"buffer" : 0, "byteOffset" : 51796, "byteLength" : 232800, "byteStride" : 20, "target" : 34962}, {"buffer" : 0, "byteOffset" : 284600, "byteLength" : 285120, "byteStride" : 20, "target" : 34962}], "materials" : [{"name" : "01-Default", "pbrMetallicRoughness" : {"baseColorFactor" : [0.6509803921568628, 0.6509803921568628, 0.6509803921568628, 1], "metallicFactor" : 0, "roughnessFactor" : 0}, "emissiveFactor" : [0, 0, 0], "alphaMode" : "OPAQUE", "doubleSided" : false}, {"name" : "02-Default", "pbrMetallicRoughness" : {"baseColorFactor" : [0, 0.08235294117647059, 0.1803921568627451, 1], "metallicFactor" : 0, "roughnessFactor" : 0}, "emissiveFactor" : [0, 0, 0], "alphaMode" : "OPAQUE", "doubleSided" : false}], "meshes" : [{"primitives" : [{"attributes" : {"POSITION" : 1, "TEXCOORD_0" : 2}, "indices" : 0, "material" : 0, "mode" : 4}, {"attributes" : {"POSITION" : 4, "TEXCOORD_0" : 5}, "indices" : 3, "material" : 1, "mode" : 4}], "name" : "freepolygo"}], "nodes" : [{"matrix" : [1.6292067694934076E-09, 0, -0.009999999776482582, 0, 1.6292067694934076E-09, 0.009999999776482582, 2.654314853679687E-16, 0, 0.009999999776482582, -1.6292067694934076E-09, 1.6292067694934076E-09, 0, 2.359965492360061E-06, 2.5396888256073, -53.99970245361328, 1], "mesh" : 0, "name" : "freepolygo"}], "scene" : 0, "scenes" : [{"nodes" : [0]}]}